<svg width="20" height="20" viewBox="0 0 20 20" fill="none" xmlns="http://www.w3.org/2000/svg">
<path d="M2.5 4.16667C2.5 3.72464 2.67559 3.30072 2.98816 2.98816C3.30072 2.67559 3.72464 2.5 4.16667 2.5H15.8333C16.2754 2.5 16.6993 2.67559 17.0118 2.98816C17.3244 3.30072 17.5 3.72464 17.5 4.16667V15.8333C17.5 16.2754 17.3244 16.6993 17.0118 17.0118C16.6993 17.3244 16.2754 17.5 15.8333 17.5H4.16667C3.72464 17.5 3.30072 17.3244 2.98816 17.0118C2.67559 16.6993 2.5 16.2754 2.5 15.8333V4.16667ZM4.16667 4.16667V15.8333H15.8333V4.16667H4.16667ZM9.16667 5.83333H10.8333C11.2754 5.83333 11.6993 6.00893 12.0118 6.32149C12.3244 6.63405 12.5 7.05797 12.5 7.5V14.1667H10.8333V10.8333H9.16667V14.1667H7.5V7.5C7.5 7.05797 7.67559 6.63405 7.98816 6.32149C8.30072 6.00893 8.72464 5.83333 9.16667 5.83333ZM9.16667 7.5V9.16667H10.8333V7.5H9.16667Z" fill="white"/>
</svg>
