<svg width="25" height="24" viewBox="0 0 25 24" fill="none" xmlns="http://www.w3.org/2000/svg">
<path fill-rule="evenodd" clip-rule="evenodd" d="M7.598 16.416L7.307 19.9185C7.30166 19.9796 7.3148 20.0408 7.34469 20.0943C7.37459 20.1479 7.41987 20.1912 7.47467 20.2186C7.52946 20.2461 7.59125 20.2565 7.65202 20.2485C7.71279 20.2404 7.76974 20.2143 7.8155 20.1735L11.1305 17.2275L12.014 17.247L12.3335 17.25C14.876 17.25 16.964 16.59 18.3635 15.4845C19.6985 14.4315 20.5835 12.8445 20.5835 10.5C20.5835 8.1555 19.6985 6.57 18.3635 5.5155C16.964 4.41 14.876 3.75 12.3335 3.75C9.791 3.75 7.703 4.41 6.3035 5.5155C4.9685 6.57 4.0835 8.1555 4.0835 10.5C4.0835 12.972 5.0675 14.613 6.5555 15.672L7.598 16.416ZM9.3095 21.8535L11.9645 19.4955C12.0855 19.4985 12.2085 19.5 12.3335 19.5C18.1325 19.5 22.8335 16.5 22.8335 10.5C22.8335 4.5 18.1325 1.5 12.3335 1.5C6.5345 1.5 1.8335 4.5 1.8335 10.5C1.8335 13.6755 3.1505 16.011 5.249 17.505L5.0645 19.731C5.02216 20.24 5.1333 20.75 5.38358 21.1953C5.63385 21.6405 6.01178 22.0006 6.46862 22.229C6.92547 22.4574 7.44027 22.5437 7.94663 22.4768C8.45299 22.4099 8.92769 22.1928 9.3095 21.8535Z" fill="#7A7A7A"/>
</svg>
