<svg width="24" height="24" viewBox="0 0 24 24" fill="none" xmlns="http://www.w3.org/2000/svg">
<path d="M6.375 22C5.85938 22 5.41797 21.8135 5.05078 21.4405C4.68359 21.0675 4.5 20.619 4.5 20.0952V10.5714C4.5 10.0476 4.68359 9.59921 5.05078 9.22619C5.41797 8.85317 5.85938 8.66667 6.375 8.66667H7.3125V6.7619C7.3125 5.44444 7.76953 4.32143 8.68359 3.39286C9.59766 2.46429 10.7031 2 12 2C13.2969 2 14.4023 2.46429 15.3164 3.39286C16.2305 4.32143 16.6875 5.44444 16.6875 6.7619V8.66667H17.625C18.1406 8.66667 18.582 8.85317 18.9492 9.22619C19.3164 9.59921 19.5 10.0476 19.5 10.5714V20.0952C19.5 20.619 19.3164 21.0675 18.9492 21.4405C18.582 21.8135 18.1406 22 17.625 22H6.375ZM6.375 20.0952H17.625V10.5714H6.375V20.0952ZM12 17.2381C12.5156 17.2381 12.957 17.0516 13.3242 16.6786C13.6914 16.3056 13.875 15.8571 13.875 15.3333C13.875 14.8095 13.6914 14.3611 13.3242 13.9881C12.957 13.6151 12.5156 13.4286 12 13.4286C11.4844 13.4286 11.043 13.6151 10.6758 13.9881C10.3086 14.3611 10.125 14.8095 10.125 15.3333C10.125 15.8571 10.3086 16.3056 10.6758 16.6786C11.043 17.0516 11.4844 17.2381 12 17.2381ZM9.1875 8.66667H14.8125V6.7619C14.8125 5.96825 14.5391 5.29365 13.9922 4.7381C13.4453 4.18254 12.7812 3.90476 12 3.90476C11.2188 3.90476 10.5547 4.18254 10.0078 4.7381C9.46094 5.29365 9.1875 5.96825 9.1875 6.7619V8.66667Z" fill="url(#paint0_linear_1127_1396)"/>
<defs>
<linearGradient id="paint0_linear_1127_1396" x1="12" y1="2" x2="12" y2="22" gradientUnits="userSpaceOnUse">
<stop stop-color="#FCB456"/>
<stop offset="1" stop-color="#B2711B"/>
</linearGradient>
</defs>
</svg>
