<svg width="14" height="8" viewBox="0 0 14 8" fill="none" xmlns="http://www.w3.org/2000/svg">
<path d="M13.4668 0.866668C13.2002 0.600001 12.8002 0.600001 12.5335 0.866668L8.3335 5.06667L5.46683 2.2C5.3335 2.06667 5.20016 2 5.00016 2C4.80016 2 4.66683 2.06667 4.5335 2.2L0.533496 6.2C0.400163 6.33333 0.333496 6.46667 0.333496 6.66667C0.333496 7.06667 0.600163 7.33333 1.00016 7.33333C1.20016 7.33333 1.3335 7.26667 1.46683 7.13334L5.00016 3.6L7.86683 6.46667C7.9335 6.53333 8.00016 6.6 8.06683 6.6C8.1335 6.66667 8.26683 6.66667 8.3335 6.66667C8.46683 6.66667 8.66683 6.6 8.7335 6.46667H8.80016L13.4668 1.8C13.7335 1.53333 13.7335 1.13333 13.4668 0.866668Z" fill="#FFAE5D"/>
</svg>
