<svg width="24" height="21" viewBox="0 0 24 21" fill="none" xmlns="http://www.w3.org/2000/svg">
<path d="M22.8251 9.67515L13.4915 0.341593C13.3283 0.178478 13.1205 0.0674011 12.8942 0.0224046C12.6679 -0.022592 12.4334 0.000512122 12.2202 0.0887959C12.007 0.17708 11.8249 0.326579 11.6967 0.518395C11.5685 0.710212 11.5 0.935732 11.5 1.16645V5.30238C8.31288 5.59731 5.35057 7.07092 3.19273 9.43484C1.03488 11.7988 -0.163175 14.8828 -0.166992 18.0835V19.8336C-0.166808 20.0757 -0.0912624 20.3119 0.0491661 20.5092C0.189595 20.7065 0.387945 20.8552 0.616706 20.9347C0.845467 21.0142 1.0933 21.0206 1.32583 20.9529C1.55836 20.8852 1.76405 20.7468 1.91439 20.5569C3.05757 19.1979 4.46005 18.0802 6.03994 17.2691C7.61983 16.458 9.34547 15.9698 11.1161 15.833C11.1744 15.826 11.3203 15.8143 11.5 15.8026V19.8336C11.5 20.0643 11.5685 20.2898 11.6967 20.4816C11.8249 20.6734 12.007 20.8229 12.2202 20.9112C12.4334 20.9995 12.6679 21.0226 12.8942 20.9776C13.1205 20.9326 13.3283 20.8215 13.4915 20.6584L22.8251 11.3249C23.0438 11.1061 23.1666 10.8094 23.1666 10.5C23.1666 10.1906 23.0438 9.89394 22.8251 9.67515ZM13.8333 17.0172V14.5834C13.8333 14.274 13.7104 13.9773 13.4916 13.7585C13.2728 13.5397 12.9761 13.4167 12.6666 13.4167C12.3691 13.4167 11.1546 13.4751 10.8443 13.5159C7.69979 13.8053 4.70661 15 2.22706 16.9553C2.50852 14.3821 3.72923 12.0031 5.65546 10.2738C7.58169 8.54459 10.0781 7.58659 12.6666 7.58326C12.9761 7.58326 13.2728 7.46035 13.4916 7.24155C13.7104 7.02275 13.8333 6.726 13.8333 6.41657V3.98285L20.3505 10.5L13.8333 17.0172Z" fill="#7A7A7A"/>
</svg>
