<svg width="16" height="17" viewBox="0 0 16 17" fill="none" xmlns="http://www.w3.org/2000/svg">
<path fill-rule="evenodd" clip-rule="evenodd" d="M5.33317 1.16666C5.2442 1.16667 5.15613 1.18448 5.07415 1.21906C4.99217 1.25364 4.91794 1.30428 4.85584 1.36799L0.855837 5.47199C0.734462 5.59648 0.666521 5.76346 0.666504 5.93732V11.1667C0.666542 11.3435 0.736804 11.513 0.861837 11.638L4.86184 15.638C4.98683 15.763 5.15637 15.8333 5.33317 15.8333H10.6665C10.8433 15.8333 11.0128 15.763 11.1378 15.638L15.1378 11.638C15.2629 11.513 15.3331 11.3435 15.3332 11.1667V5.93732C15.3332 5.76346 15.2652 5.59648 15.1438 5.47199L11.1438 1.36799C11.0817 1.30428 11.0075 1.25364 10.9255 1.21906C10.8435 1.18448 10.7555 1.16667 10.6665 1.16666H5.33317ZM5.33317 7.83332C5.15636 7.83332 4.98679 7.90356 4.86177 8.02859C4.73674 8.15361 4.6665 8.32318 4.6665 8.49999C4.6665 8.6768 4.73674 8.84637 4.86177 8.97139C4.98679 9.09642 5.15636 9.16666 5.33317 9.16666H10.6665C10.8433 9.16666 11.0129 9.09642 11.1379 8.97139C11.2629 8.84637 11.3332 8.6768 11.3332 8.49999C11.3332 8.32318 11.2629 8.15361 11.1379 8.02859C11.0129 7.90356 10.8433 7.83332 10.6665 7.83332H5.33317Z" fill="white"/>
</svg>
