<svg width="14" height="14" viewBox="0 0 14 14" fill="none" xmlns="http://www.w3.org/2000/svg">
<path d="M7 3C7.62867 3 7.94267 3 8.138 3.19533C8.33333 3.39067 8.33333 3.70467 8.33333 4.33333V9.66667C8.33333 10.2953 8.33333 10.6093 8.138 10.8047C7.94267 11 7.62867 11 7 11M7 3C6.37133 3 6.05733 3 5.862 3.19533C5.66667 3.39067 5.66667 3.70467 5.66667 4.33333V9.66667C5.66667 10.2953 5.66667 10.6093 5.862 10.8047C6.05733 11 6.37133 11 7 11M7 3V1M7 11V13M11.6667 2.33333C12.2953 2.33333 12.6093 2.33333 12.8047 2.52867C13 2.724 13 3.038 13 3.66667V5C13 5.62867 13 5.94267 12.8047 6.138C12.6093 6.33333 12.2953 6.33333 11.6667 6.33333M11.6667 2.33333C11.038 2.33333 10.724 2.33333 10.5287 2.52867C10.3333 2.724 10.3333 3.038 10.3333 3.66667V5C10.3333 5.62867 10.3333 5.94267 10.5287 6.138C10.724 6.33333 11.038 6.33333 11.6667 6.33333M11.6667 2.33333V1M11.6667 6.33333V7.66667M2.33333 5.66667C2.962 5.66667 3.276 5.66667 3.47133 5.862C3.66667 6.05733 3.66667 6.37133 3.66667 7V8.33333C3.66667 8.962 3.66667 9.276 3.47133 9.47133C3.276 9.66667 2.962 9.66667 2.33333 9.66667M2.33333 5.66667C1.70467 5.66667 1.39067 5.66667 1.19533 5.862C1 6.05733 1 6.37133 1 7V8.33333C1 8.962 1 9.276 1.19533 9.47133C1.39067 9.66667 1.70467 9.66667 2.33333 9.66667M2.33333 5.66667V4.33333M2.33333 9.66667V11" stroke="#C191FF" stroke-width="1.5" stroke-linecap="round" stroke-linejoin="round"/>
</svg>
