<svg width="34" height="34" viewBox="0 0 34 34" fill="none" xmlns="http://www.w3.org/2000/svg">
<g clip-path="url(#clip0_807_12718)">
<path d="M24.2643 16.9722C24.2644 16.4206 24.4727 15.8894 24.8475 15.4848C25.2224 15.0802 25.7362 14.832 26.2862 14.7899C26.3318 14.7863 26.3744 14.7656 26.4053 14.7319C26.4363 14.6982 26.4534 14.654 26.4532 14.6083L26.4549 11.6812C26.4549 11.6328 26.4357 11.5865 26.4015 11.5523C26.3673 11.5181 26.3209 11.4989 26.2726 11.4989L21.6096 11.4989C21.4376 11.4988 21.2679 11.5389 21.1141 11.6159C20.9601 11.6933 20.7903 11.7337 20.618 11.734C20.4456 11.7343 20.2756 11.6944 20.1214 11.6175C19.9674 11.5405 19.7977 11.5004 19.6255 11.5002L7.66859 11.4989C7.62025 11.4989 7.57388 11.5181 7.5397 11.5523C7.50551 11.5865 7.4863 11.6328 7.48629 11.6812L7.48629 14.6066C7.48609 14.6524 7.50319 14.6965 7.53417 14.7302C7.56515 14.7639 7.60772 14.7846 7.65334 14.7883C8.20352 14.83 8.71761 15.0781 9.0927 15.4827C9.46778 15.8874 9.67619 16.4188 9.67619 16.9706C9.67619 17.5223 9.46778 18.0537 9.0927 18.4584C8.71761 18.863 8.20352 19.1111 7.65334 19.1529C7.60772 19.1565 7.56515 19.1772 7.53417 19.2109C7.50319 19.2446 7.48609 19.2887 7.48629 19.3345L7.48629 22.2599C7.4863 22.3083 7.50551 22.3547 7.5397 22.3888C7.57388 22.423 7.62025 22.4422 7.66859 22.4422L19.6272 22.4426C19.7993 22.4424 19.9691 22.4022 20.1231 22.3252C20.277 22.2479 20.4469 22.2074 20.6192 22.2071C20.7915 22.2069 20.9615 22.2467 21.1158 22.3236C21.2696 22.4006 21.4393 22.4406 21.6113 22.4406L26.2742 22.4406C26.3226 22.4406 26.3689 22.4214 26.4031 22.3872C26.4373 22.353 26.4565 22.3066 26.4565 22.2583L26.4565 19.3329C26.4567 19.2871 26.4396 19.2429 26.4086 19.2093C26.3777 19.1756 26.3351 19.1548 26.2895 19.1512C25.7395 19.1099 25.2254 18.8626 24.8499 18.4586C24.4744 18.0546 24.2653 17.5238 24.2643 16.9722Z" stroke="white" stroke-miterlimit="10"/>
<path d="M20.6186 12.958L20.6186 11.8635M20.6186 15.8761L20.6183 15.1466M20.6183 18.7946L20.6186 18.065M20.6186 22.0776V20.9832" stroke="white" stroke-miterlimit="10" stroke-linecap="round"/>
</g>
<defs>
<clipPath id="clip0_807_12718">
<rect width="24" height="24" fill="white" transform="translate(16.9706) rotate(45)"/>
</clipPath>
</defs>
</svg>
