<svg width="29" height="29" viewBox="0 0 29 29" fill="none" xmlns="http://www.w3.org/2000/svg">
<g clip-path="url(#clip0_655_8004)">
<path d="M20.2448 14.1435C20.2449 13.6839 20.4185 13.2412 20.7309 12.904C21.0433 12.5668 21.4714 12.36 21.9297 12.3249C21.9678 12.3219 22.0032 12.3046 22.029 12.2765C22.0549 12.2485 22.0691 12.2117 22.0689 12.1735L22.0703 9.7343C22.0703 9.69402 22.0543 9.65538 22.0258 9.62689C21.9973 9.5984 21.9587 9.5824 21.9184 9.58239L18.0326 9.58239C17.8893 9.58234 17.7479 9.61572 17.6197 9.67989C17.4914 9.74437 17.3498 9.77807 17.2062 9.77831C17.0626 9.77855 16.921 9.74532 16.7924 9.68127C16.6641 9.6171 16.5227 9.58363 16.3792 9.58349L6.41509 9.58239C6.3748 9.5824 6.33617 9.5984 6.30768 9.62689C6.27919 9.65538 6.26318 9.69402 6.26317 9.7343L6.26317 12.1722C6.263 12.2103 6.27726 12.2471 6.30307 12.2752C6.32889 12.3032 6.36436 12.3205 6.40238 12.3235C6.86086 12.3584 7.28927 12.5651 7.60184 12.9023C7.91442 13.2395 8.08809 13.6823 8.08809 14.1421C8.08809 14.6019 7.91442 15.0448 7.60184 15.382C7.28927 15.7192 6.86086 15.9259 6.40238 15.9607C6.36436 15.9637 6.32889 15.981 6.30307 16.0091C6.27726 16.0371 6.263 16.0739 6.26317 16.1121L6.26317 18.5499C6.26318 18.5902 6.27919 18.6289 6.30768 18.6573C6.33617 18.6858 6.3748 18.7018 6.41509 18.7019L16.3806 18.7021C16.5241 18.702 16.6655 18.6685 16.7938 18.6044C16.9221 18.5399 17.0637 18.5062 17.2073 18.5059C17.3509 18.5057 17.4926 18.5389 17.6211 18.603C17.7493 18.6671 17.8907 18.7005 18.034 18.7005L21.9198 18.7005C21.9601 18.7005 21.9987 18.6845 22.0272 18.656C22.0557 18.6275 22.0717 18.5888 22.0717 18.5486L22.0717 16.1107C22.0719 16.0726 22.0576 16.0358 22.0318 16.0077C22.006 15.9796 21.9705 15.9623 21.9325 15.9593C21.4742 15.9249 21.0457 15.7188 20.7328 15.3821C20.4199 15.0455 20.2457 14.6031 20.2448 14.1435Z" stroke="black" stroke-miterlimit="10"/>
<path d="M17.2068 10.7983L17.2068 9.88623M17.2068 13.2301L17.2065 12.6221M17.2065 15.6621L17.2068 15.0542M17.2068 18.398L17.2068 17.486" stroke="black" stroke-miterlimit="10" stroke-linecap="round"/>
</g>
<defs>
<clipPath id="clip0_655_8004">
<rect width="20" height="20" fill="white" transform="translate(14.1667) rotate(45)"/>
</clipPath>
</defs>
</svg>
