<svg width="20" height="20" viewBox="0 0 20 20" fill="none" xmlns="http://www.w3.org/2000/svg">
<g clip-path="url(#clip0_679_2120)">
<path d="M14.4696 5.21208C14.4696 5.21208 10.6817 10.5151 4.99992 10.5151M4.99992 10.5151C3.48477 10.5151 0.833252 11.2727 0.833252 14.303V17.3333H9.16659V14.303C9.16659 12.4091 11.4393 13.5454 14.4696 8.24238L13.3333 7.10602M4.99992 10.5151C5.70314 10.5151 6.37757 10.2358 6.87482 9.7385C7.37208 9.24124 7.65143 8.56682 7.65143 7.8636C7.65143 7.16037 7.37208 6.48595 6.87482 5.98869C6.37757 5.49144 5.70314 5.21208 4.99992 5.21208C4.29669 5.21208 3.62227 5.49144 3.12501 5.98869C2.62776 6.48595 2.3484 7.16037 2.3484 7.8636C2.3484 8.56682 2.62776 9.24124 3.12501 9.7385C3.62227 10.2358 4.29669 10.5151 4.99992 10.5151ZM2.3484 3.69693V1.4242H17.4999V12.0303H15.2272M8.40901 0.666626H11.4393V2.18178H8.40901V0.666626Z" stroke="white" stroke-width="2"/>
</g>
<defs>
<clipPath id="clip0_679_2120">
<rect width="20" height="20" fill="white"/>
</clipPath>
</defs>
</svg>
